<?xml version="1.0" encoding="utf-8"?>
<!-- Generator: Adobe Illustrator 19.0.0, SVG Export Plug-In . SVG Version: 6.00 Build 0)  -->
<svg version="1.1" id="Layer_1" xmlns="http://www.w3.org/2000/svg" xmlns:xlink="http://www.w3.org/1999/xlink" x="0px" y="0px"
	 viewBox="0 0 20 20" enable-background="new 0 0 20 20" xml:space="preserve">
<symbol  id="Add" viewBox="-4 -4 8 8">
	<path id="XMLID_35_" fill="#FFFFFF" stroke="#297FFF" stroke-linecap="round" stroke-linejoin="round" stroke-miterlimit="10" d="
		M3.5,0c0-1.9-1.6-3.5-3.5-3.5S-3.5-1.9-3.5,0S-1.9,3.5,0,3.5S3.5,1.9,3.5,0z"/>
	<g id="XMLID_24_">
		
			<line id="XMLID_34_" fill="none" stroke="#297FFF" stroke-linecap="round" stroke-linejoin="round" stroke-miterlimit="10" x1="-2" y1="0" x2="2" y2="0"/>
		
			<line id="XMLID_33_" fill="none" stroke="#297FFF" stroke-linecap="round" stroke-linejoin="round" stroke-miterlimit="10" x1="0" y1="2" x2="0" y2="-2"/>
	</g>
</symbol>
<symbol  id="Cross_5__xD7__5_px_1_" viewBox="-2.5 -2.5 5 5">
	
		<line id="XMLID_17_" fill="none" stroke="#263238" stroke-linecap="round" stroke-linejoin="round" stroke-miterlimit="10" x1="-2" y1="0" x2="2" y2="0"/>
	
		<line id="XMLID_16_" fill="none" stroke="#263238" stroke-linecap="round" stroke-linejoin="round" stroke-miterlimit="10" x1="0" y1="2" x2="0" y2="-2"/>
	<path id="XMLID_15_" fill="#FFFFFF" d="M0-0.5L0-0.5c-0.3,0-0.5,0.2-0.5,0.5v0c0,0.3,0.2,0.5,0.5,0.5h0c0.3,0,0.5-0.2,0.5-0.5v0
		C0.5-0.3,0.3-0.5,0-0.5z"/>
</symbol>
<g id="XMLID_145_">
	<g id="XMLID_52_">
		
			<line id="XMLID_55_" fill="none" stroke="#92989B" stroke-linecap="round" stroke-linejoin="round" x1="-86" y1="24.5" x2="-86" y2="24.5"/>
		
			<line id="XMLID_54_" fill="none" stroke="#92989B" stroke-linecap="round" stroke-linejoin="round" stroke-dasharray="0,2" x1="-88" y1="24.5" x2="-89" y2="24.5"/>
		
			<line id="XMLID_53_" fill="none" stroke="#92989B" stroke-linecap="round" stroke-linejoin="round" x1="-90" y1="24.5" x2="-90" y2="24.5"/>
	</g>
</g>
<g id="XMLID_7_">
	<g id="XMLID_47_">
		
			<line id="XMLID_51_" fill="none" stroke="#92989B" stroke-linecap="round" stroke-linejoin="round" x1="-84" y1="23" x2="-84" y2="23"/>
		
			<line id="XMLID_50_" fill="none" stroke="#92989B" stroke-linecap="round" stroke-linejoin="round" stroke-dasharray="0,1.8856" x1="-85.3" y1="21.7" x2="-91.3" y2="15.7"/>
		
			<line id="XMLID_48_" fill="none" stroke="#92989B" stroke-linecap="round" stroke-linejoin="round" x1="-92" y1="15" x2="-92" y2="15"/>
	</g>
</g>
<g id="XMLID_27_">
	<g id="XMLID_107_">
		
			<line id="XMLID_110_" fill="none" stroke="#92989B" stroke-linecap="round" stroke-linejoin="round" x1="-93.5" y1="21" x2="-93.5" y2="21"/>
		
			<line id="XMLID_109_" fill="none" stroke="#92989B" stroke-linecap="round" stroke-linejoin="round" stroke-dasharray="0,2" x1="-93.5" y1="19" x2="-93.5" y2="18"/>
		
			<line id="XMLID_108_" fill="none" stroke="#92989B" stroke-linecap="round" stroke-linejoin="round" x1="-93.5" y1="17" x2="-93.5" y2="17"/>
	</g>
</g>
<g id="XMLID_1_">
	<g id="XMLID_112_">
		
			<line id="XMLID_115_" fill="none" stroke="#263238" stroke-linecap="round" stroke-linejoin="round" x1="-99.1" y1="5.6" x2="-88.6" y2="-4.9"/>
		<g id="XMLID_113_">
			<polyline id="XMLID_114_" fill="none" stroke="#263238" stroke-linecap="round" stroke-linejoin="round" points="-93.2,-4.9 
				-88.6,-4.9 -88.6,-0.4 			"/>
		</g>
	</g>
</g>
<use xlink:href="#Cross_5__xD7__5_px_1_"  width="5" height="5" id="XMLID_2_" x="-2.5" y="-2.5" transform="matrix(1 0 0 -1 -93.5 24.5)" overflow="visible"/>
<use xlink:href="#Cross_5__xD7__5_px_1_"  width="5" height="5" id="XMLID_10_" x="-2.5" y="-2.5" transform="matrix(1 0 0 -1 -93.5 13.5)" overflow="visible"/>
<g id="Cross_5__xD7__5_px">
</g>
<use xlink:href="#Cross_5__xD7__5_px_1_"  width="5" height="5" id="XMLID_12_" x="-2.5" y="-2.5" transform="matrix(1 0 0 -1 -82.5 24.5)" overflow="visible"/>
<use xlink:href="#Add"  width="8" height="8" id="XMLID_6_" x="-4" y="-4" transform="matrix(1 0 0 -1 -84 15)" overflow="visible"/>
<g id="Search">
	
		<line id="XMLID_93_" fill="none" stroke="#263238" stroke-linecap="round" stroke-linejoin="round" stroke-miterlimit="10" x1="-18" y1="19" x2="-24.7" y2="12.3"/>
	<path id="XMLID_96_" fill="none" stroke="#263238" stroke-linecap="round" stroke-linejoin="round" stroke-miterlimit="10" d="
		M-24.7,12.3c1.2-1.2,1.9-2.8,1.9-4.7c0-3.6-3-6.6-6.6-6.6S-36,4-36,7.6c0,3.6,3,6.6,6.6,6.6C-27.6,14.2-25.9,13.5-24.7,12.3"/>
</g>
<g id="Buy_me_a_coffe">
	<path id="XMLID_388_" fill="#FFDD00" d="M10.4,9.3C9.8,9.6,9.1,9.9,8.2,9.9C7.8,9.9,7.4,9.9,7,9.7l0.6,6.8c0,0.3,0.1,0.5,0.3,0.7
		c0.2,0.2,0.5,0.3,0.7,0.3c0,0,0.9,0,1.2,0c0.3,0,1.3,0,1.3,0c0.3,0,0.5-0.1,0.7-0.3c0.2-0.2,0.3-0.5,0.3-0.7L13,9
		c-0.3-0.1-0.6-0.2-1-0.2C11.5,8.9,11,9.1,10.4,9.3z"/>
	<path id="XMLID_391_" fill="#0D0C22" d="M15.9,5.8l-0.1-0.5c-0.1-0.4-0.3-0.9-0.7-1c-0.1-0.1-0.3-0.1-0.4-0.2
		c-0.1-0.1-0.1-0.3-0.2-0.4c0-0.3-0.1-0.6-0.1-0.9c0-0.2-0.1-0.5-0.2-0.7c-0.1-0.3-0.4-0.5-0.7-0.6c-0.1-0.1-0.3-0.1-0.5-0.1
		c-0.7-0.2-1.5-0.3-2.2-0.3C9.9,1,9,1,8.1,1.1c-0.7,0.1-1.4,0.1-2,0.4C5.9,1.5,5.7,1.6,5.5,1.8C5.3,2.1,5.2,2.4,5.4,2.7
		C5.5,2.9,5.7,3,5.9,3.1c0.3,0.1,0.5,0.2,0.8,0.3c0.8,0.2,1.6,0.2,2.4,0.3c0.9,0,1.8,0,2.6-0.1c0.2,0,0.4-0.1,0.6-0.1
		c0.3,0,0.4-0.4,0.3-0.6c-0.1-0.3-0.3-0.4-0.6-0.4c0,0-0.1,0-0.1,0l0,0c-0.1,0-0.2,0-0.3,0c-0.2,0-0.4,0-0.6,0.1c-0.4,0-0.9,0-1.3,0
		c-0.4,0-0.8,0-1.3,0c-0.2,0-0.4,0-0.6,0c-0.1,0-0.2,0-0.3,0l-0.1,0l0,0l-0.1,0C7.4,2.5,7.2,2.5,7,2.4c0,0,0,0,0,0c0,0,0,0,0-0.1
		c0,0,0,0,0-0.1c0,0,0,0,0,0h0c0.2,0,0.3-0.1,0.5-0.1c0.1,0,0.1,0,0.2,0h0c0.1,0,0.2,0,0.3,0C8.7,2,9.5,2,10.4,2
		c0.4,0,0.8,0,1.2,0.1c0.1,0,0.2,0,0.3,0c0,0,0.1,0,0.1,0l0.1,0c0.2,0,0.4,0.1,0.6,0.1c0.3,0.1,0.6,0.1,0.8,0.4
		c0,0.1,0.1,0.2,0.1,0.3l0,0.1c0,0,0,0,0,0c0.1,0.3,0.1,0.6,0.2,1c0,0,0,0,0,0.1c0,0,0,0,0,0.1c0,0,0,0-0.1,0c0,0,0,0-0.1,0h0l0,0
		l0,0c-0.1,0-0.3,0-0.4,0c-0.3,0-0.5,0.1-0.8,0.1c-0.5,0-1,0.1-1.5,0.1c-0.3,0-0.5,0-0.8,0C9,4.6,8,4.5,6.9,4.4c-0.1,0-0.2,0-0.3,0
		c0.1,0-0.1,0-0.1,0c-0.1,0-0.1,0-0.2,0c-0.2,0-0.5-0.1-0.7-0.1c-0.3,0-0.6,0-0.8,0.1C4.6,4.4,4.4,4.6,4.3,4.8
		C4.2,5,4.2,5.3,4.1,5.6C4.1,5.8,4,6.1,4,6.4c0.1,0.6,0.4,1,1,1.1c0.5,0.1,1,0.2,1.6,0.2c2,0.3,4.1,0.3,6.2,0.1c0.2,0,0.3,0,0.5-0.1
		c0.1,0,0.1,0,0.2,0c0,0,0.1,0,0.1,0.1c0,0,0.1,0.1,0.1,0.1c0,0.1,0,0.1,0,0.2l-0.1,0.5c-0.1,1.1-0.2,2.1-0.3,3.2
		c-0.1,1.1-0.2,2.2-0.3,3.3c0,0.3-0.1,0.6-0.1,0.9c0,0.3,0,0.6-0.1,0.9c-0.1,0.5-0.4,0.8-0.9,0.9c-0.4,0.1-0.8,0.2-1.3,0.2
		c-0.5,0-0.9,0-1.4,0c-0.5,0-1.1,0-1.5-0.4c-0.3-0.3-0.4-0.9-0.4-1.3C7.2,15.7,7.1,15,7,14.4L6.7,11L6.5,8.8c0,0,0-0.1,0-0.1
		c0-0.3-0.2-0.5-0.5-0.5c-0.2,0-0.5,0.2-0.5,0.5l0.2,1.6L6,13.7c0.1,1,0.2,1.9,0.3,2.9c0,0.2,0,0.4,0.1,0.6c0.1,1,0.8,1.6,1.8,1.7
		C8.6,19,9.2,19,9.7,19c0.7,0,1.4,0,2.1-0.1c1-0.2,1.8-0.9,1.9-2c0-0.3,0.1-0.6,0.1-0.9c0.1-1,0.2-2.1,0.3-3.1l0.3-3.4l0.2-1.6
		c0-0.1,0-0.2,0.1-0.2c0.1-0.1,0.1-0.1,0.2-0.1c0.3-0.1,0.6-0.2,0.8-0.4C16,6.8,16.1,6.3,15.9,5.8z M14.9,6.4
		c-0.1,0.1-0.3,0.2-0.4,0.2C12.7,6.8,10.9,7,9.2,6.9c-1.3,0-2.5-0.2-3.8-0.4c-0.1,0-0.3,0-0.3-0.1C4.9,6.2,5,5.9,5,5.7
		c0-0.2,0.1-0.5,0.3-0.5c0.4,0,0.8,0.1,1.1,0.2c0.4,0.1,0.8,0.1,1.3,0.2c1.8,0.2,3.6,0.1,5.4-0.1c0.3,0,0.7-0.1,1-0.2
		c0.3-0.1,0.6-0.2,0.8,0.2C15,5.6,15,5.9,15,6.1C15,6.2,14.9,6.3,14.9,6.4L14.9,6.4z"/>
</g>
</svg>
