<?xml version="1.0" encoding="utf-8"?>
<!-- Generator: Adobe Illustrator 19.0.0, SVG Export Plug-In . SVG Version: 6.00 Build 0)  -->
<svg version="1.1" xmlns="http://www.w3.org/2000/svg" xmlns:xlink="http://www.w3.org/1999/xlink" x="0px" y="0px"
	 viewBox="0 0 20 20" enable-background="new 0 0 20 20" xml:space="preserve">
<symbol  id="Add" viewBox="-4 -4 8 8">
	<path id="XMLID_35_" fill="#FFFFFF" stroke="#297FFF" stroke-linecap="round" stroke-linejoin="round" stroke-miterlimit="10" d="
		M3.5,0c0-1.9-1.6-3.5-3.5-3.5S-3.5-1.9-3.5,0S-1.9,3.5,0,3.5S3.5,1.9,3.5,0z"/>
	<g id="XMLID_24_">
		
			<line id="XMLID_34_" fill="none" stroke="#297FFF" stroke-linecap="round" stroke-linejoin="round" stroke-miterlimit="10" x1="-2" y1="0" x2="2" y2="0"/>
		
			<line id="XMLID_33_" fill="none" stroke="#297FFF" stroke-linecap="round" stroke-linejoin="round" stroke-miterlimit="10" x1="0" y1="2" x2="0" y2="-2"/>
	</g>
</symbol>
<symbol  id="Cross_5__xD7__5_px_1_" viewBox="-2.5 -2.5 5 5">
	
		<line id="XMLID_17_" fill="none" stroke="#263238" stroke-linecap="round" stroke-linejoin="round" stroke-miterlimit="10" x1="-2" y1="0" x2="2" y2="0"/>
	
		<line id="XMLID_16_" fill="none" stroke="#263238" stroke-linecap="round" stroke-linejoin="round" stroke-miterlimit="10" x1="0" y1="2" x2="0" y2="-2"/>
	<path id="XMLID_15_" fill="#FFFFFF" d="M0-0.5L0-0.5c-0.3,0-0.5,0.2-0.5,0.5v0c0,0.3,0.2,0.5,0.5,0.5h0c0.3,0,0.5-0.2,0.5-0.5v0
		C0.5-0.3,0.3-0.5,0-0.5z"/>
</symbol>
<g id="Layer_1">
	<g id="XMLID_145_">
		<g id="XMLID_52_">
			
				<line id="XMLID_55_" fill="none" stroke="#92989B" stroke-linecap="round" stroke-linejoin="round" x1="-115" y1="24.4" x2="-115" y2="24.4"/>
			
				<line id="XMLID_54_" fill="none" stroke="#92989B" stroke-linecap="round" stroke-linejoin="round" stroke-dasharray="0,2" x1="-117" y1="24.4" x2="-118" y2="24.4"/>
			
				<line id="XMLID_53_" fill="none" stroke="#92989B" stroke-linecap="round" stroke-linejoin="round" x1="-119" y1="24.4" x2="-119" y2="24.4"/>
		</g>
	</g>
	<g id="XMLID_7_">
		<g id="XMLID_47_">
			
				<line id="XMLID_51_" fill="none" stroke="#92989B" stroke-linecap="round" stroke-linejoin="round" x1="-113" y1="22.9" x2="-113" y2="22.9"/>
			
				<line id="XMLID_50_" fill="none" stroke="#92989B" stroke-linecap="round" stroke-linejoin="round" stroke-dasharray="0,1.8856" x1="-114.3" y1="21.6" x2="-120.3" y2="15.6"/>
			
				<line id="XMLID_48_" fill="none" stroke="#92989B" stroke-linecap="round" stroke-linejoin="round" x1="-121" y1="14.9" x2="-121" y2="14.9"/>
		</g>
	</g>
	<g id="XMLID_27_">
		<g id="XMLID_107_">
			
				<line id="XMLID_110_" fill="none" stroke="#92989B" stroke-linecap="round" stroke-linejoin="round" x1="-122.5" y1="20.9" x2="-122.5" y2="20.9"/>
			
				<line id="XMLID_109_" fill="none" stroke="#92989B" stroke-linecap="round" stroke-linejoin="round" stroke-dasharray="0,2" x1="-122.5" y1="18.9" x2="-122.5" y2="17.9"/>
			
				<line id="XMLID_108_" fill="none" stroke="#92989B" stroke-linecap="round" stroke-linejoin="round" x1="-122.5" y1="16.9" x2="-122.5" y2="16.9"/>
		</g>
	</g>
	<g id="XMLID_1_">
		<g id="XMLID_112_">
			
				<line id="XMLID_115_" fill="none" stroke="#263238" stroke-linecap="round" stroke-linejoin="round" x1="-128.1" y1="5.5" x2="-117.6" y2="-5"/>
			<g id="XMLID_113_">
				<polyline id="XMLID_114_" fill="none" stroke="#263238" stroke-linecap="round" stroke-linejoin="round" points="-122.2,-5 
					-117.6,-5 -117.6,-0.5 				"/>
			</g>
		</g>
	</g>
	
		<use xlink:href="#Cross_5__xD7__5_px_1_"  width="5" height="5" id="XMLID_2_" x="-2.5" y="-2.5" transform="matrix(1 0 0 -1 -122.5 24.4167)" overflow="visible"/>
	
		<use xlink:href="#Cross_5__xD7__5_px_1_"  width="5" height="5" id="XMLID_10_" x="-2.5" y="-2.5" transform="matrix(1 0 0 -1 -122.5 13.4167)" overflow="visible"/>
	<g id="Cross_5__xD7__5_px">
	</g>
	
		<use xlink:href="#Cross_5__xD7__5_px_1_"  width="5" height="5" id="XMLID_12_" x="-2.5" y="-2.5" transform="matrix(1 0 0 -1 -111.5 24.4167)" overflow="visible"/>
	
		<use xlink:href="#Add"  width="8" height="8" id="XMLID_6_" x="-4" y="-4" transform="matrix(1 0 0 -1 -113 14.9167)" overflow="visible"/>
	<g id="Search">
		
			<line id="XMLID_93_" fill="none" stroke="#263238" stroke-linecap="round" stroke-linejoin="round" stroke-miterlimit="10" x1="-47" y1="18.9" x2="-53.7" y2="12.2"/>
		<path id="XMLID_96_" fill="none" stroke="#263238" stroke-linecap="round" stroke-linejoin="round" stroke-miterlimit="10" d="
			M-53.7,12.2c1.2-1.2,1.9-2.8,1.9-4.7c0-3.6-3-6.6-6.6-6.6c-3.6,0-6.6,3-6.6,6.6c0,3.6,3,6.6,6.6,6.6
			C-56.6,14.1-54.9,13.4-53.7,12.2"/>
	</g>
	<g id="Buy_me_a_coffe">
		<path id="XMLID_388_" fill="#FDCB14" d="M-18.6,9.2c-0.6,0.3-1.3,0.6-2.2,0.6c-0.4,0-0.8-0.1-1.1-0.2l0.6,6.8
			c0,0.3,0.1,0.5,0.3,0.7s0.5,0.3,0.7,0.3c0,0,0.9,0,1.2,0c0.3,0,1.3,0,1.3,0c0.3,0,0.5-0.1,0.7-0.3s0.3-0.5,0.3-0.7L-16,9
			c-0.3-0.1-0.6-0.2-1-0.2C-17.5,8.8-18,9-18.6,9.2z"/>
		<path id="XMLID_391_" fill="#0D0C22" d="M-13.1,5.7l-0.1-0.5c-0.1-0.4-0.3-0.9-0.7-1C-14,4.1-14.2,4.1-14.3,4
			c-0.1-0.1-0.1-0.3-0.2-0.4c0-0.3-0.1-0.6-0.1-0.9c0-0.2-0.1-0.5-0.2-0.7c-0.1-0.3-0.4-0.5-0.7-0.6c-0.1-0.1-0.3-0.1-0.5-0.1
			c-0.7-0.2-1.5-0.3-2.2-0.3c-0.9-0.1-1.8,0-2.7,0c-0.7,0.1-1.4,0.1-2,0.4c-0.2,0.1-0.5,0.2-0.6,0.4c-0.2,0.2-0.3,0.6-0.1,0.9
			c0.1,0.2,0.3,0.3,0.5,0.4c0.3,0.1,0.5,0.2,0.8,0.3c0.8,0.2,1.6,0.2,2.4,0.3c0.9,0,1.8,0,2.6-0.1c0.2,0,0.4-0.1,0.6-0.1
			c0.3,0,0.4-0.4,0.3-0.6c-0.1-0.3-0.3-0.4-0.6-0.4c0,0-0.1,0-0.1,0l0,0c-0.1,0-0.2,0-0.3,0c-0.2,0-0.4,0-0.6,0.1
			c-0.4,0-0.9,0-1.3,0c-0.4,0-0.8,0-1.3,0c-0.2,0-0.4,0-0.6,0c-0.1,0-0.2,0-0.3,0l-0.1,0l0,0l-0.1,0c-0.2,0-0.4-0.1-0.5-0.1
			c0,0,0,0,0,0c0,0,0,0,0-0.1c0,0,0,0,0-0.1c0,0,0,0,0,0h0c0.2,0,0.3-0.1,0.5-0.1c0.1,0,0.1,0,0.2,0h0c0.1,0,0.2,0,0.3,0
			c0.8-0.1,1.7-0.1,2.5-0.1c0.4,0,0.8,0,1.2,0.1c0.1,0,0.2,0,0.3,0c0,0,0.1,0,0.1,0l0.1,0c0.2,0,0.4,0.1,0.6,0.1
			c0.3,0.1,0.6,0.1,0.8,0.4c0,0.1,0.1,0.2,0.1,0.3l0,0.1c0,0,0,0,0,0c0.1,0.3,0.1,0.6,0.2,1c0,0,0,0,0,0.1c0,0,0,0,0,0.1
			c0,0,0,0-0.1,0c0,0,0,0-0.1,0h0l0,0l0,0c-0.1,0-0.3,0-0.4,0c-0.3,0-0.5,0.1-0.8,0.1c-0.5,0-1,0.1-1.5,0.1c-0.3,0-0.5,0-0.8,0
			c-1,0-2.1-0.1-3.1-0.2c-0.1,0-0.2,0-0.3,0c0.1,0-0.1,0-0.1,0c-0.1,0-0.1,0-0.2,0c-0.2,0-0.5-0.1-0.7-0.1c-0.3,0-0.6,0-0.8,0.1
			c-0.2,0.1-0.4,0.3-0.5,0.5c-0.1,0.2-0.1,0.5-0.2,0.8c0,0.3-0.1,0.5-0.1,0.8c0.1,0.6,0.4,1,1,1.1c0.5,0.1,1,0.2,1.6,0.2
			c2,0.3,4.1,0.3,6.2,0.1c0.2,0,0.3,0,0.5-0.1c0.1,0,0.1,0,0.2,0c0,0,0.1,0,0.1,0.1c0,0,0.1,0.1,0.1,0.1c0,0.1,0,0.1,0,0.2l-0.1,0.5
			c-0.1,1.1-0.2,2.1-0.3,3.2c-0.1,1.1-0.2,2.2-0.3,3.3c0,0.3-0.1,0.6-0.1,0.9c0,0.3,0,0.6-0.1,0.9c-0.1,0.5-0.4,0.8-0.9,0.9
			c-0.4,0.1-0.8,0.2-1.3,0.2c-0.5,0-0.9,0-1.4,0c-0.5,0-1.1,0-1.5-0.4c-0.3-0.3-0.4-0.9-0.4-1.3c-0.1-0.6-0.1-1.2-0.2-1.8l-0.3-3.4
			l-0.2-2.2c0,0,0-0.1,0-0.1c0-0.3-0.2-0.5-0.5-0.5c-0.2,0-0.5,0.2-0.5,0.5l0.2,1.6l0.3,3.4c0.1,1,0.2,1.9,0.3,2.9
			c0,0.2,0,0.4,0.1,0.6c0.1,1,0.8,1.6,1.8,1.7c0.5,0.1,1.1,0.1,1.6,0.1c0.7,0,1.4,0,2.1-0.1c1-0.2,1.8-0.9,1.9-2
			c0-0.3,0.1-0.6,0.1-0.9c0.1-1,0.2-2.1,0.3-3.1l0.3-3.4l0.2-1.6c0-0.1,0-0.2,0.1-0.2c0.1-0.1,0.1-0.1,0.2-0.1
			c0.3-0.1,0.6-0.2,0.8-0.4C-13,6.7-12.9,6.2-13.1,5.7z M-14.1,6.3c-0.1,0.1-0.3,0.2-0.4,0.2c-1.7,0.3-3.5,0.4-5.3,0.3
			c-1.3,0-2.5-0.2-3.8-0.4c-0.1,0-0.3,0-0.3-0.1c-0.2-0.2-0.1-0.5,0-0.7c0-0.2,0.1-0.5,0.3-0.5c0.4,0,0.8,0.1,1.1,0.2
			c0.4,0.1,0.8,0.1,1.3,0.2c1.8,0.2,3.6,0.1,5.4-0.1c0.3,0,0.7-0.1,1-0.2c0.3-0.1,0.6-0.2,0.8,0.2C-14,5.5-14,5.8-14,6
			C-14,6.1-14.1,6.2-14.1,6.3L-14.1,6.3z"/>
	</g>
</g>
<g id="Capa_1">
	<g id="XMLID_384_">
		<path id="XMLID_591_" fill="#FFFFFF" d="M2.4,9.1c-0.6,0-1.1-0.4-1.1-1V4.4c0-0.8,0.8-1.4,1.7-1.4c0.4,0,0.9,0.2,1.2,0.5
			c0-0.2-0.1-0.3-0.1-0.5c0-1,1-1.7,2.1-1.7c0.8,0,1.6,0.5,1.8,1.2c0.8-0.6,2.1-0.6,2.9,0.2c0.1,0.1,0.2,0.2,0.3,0.3
			c0.3-0.2,0.6-0.3,1-0.3c0.9,0,1.7,0.6,1.7,1.4c0,0.3-0.1,0.6-0.4,0.9l-0.1,0.2h-3.1c0,0,0,0,0,0.1c0,0.2,0,0.3,0,0.4
			c0,0.1,0,0.2,0,0.2c0,1-0.9,1.7-2.1,1.7C7.2,7.6,6.4,7,6.2,6.2C5.8,6.9,4.8,7.2,4,6.9C3.8,6.8,3.7,6.7,3.5,6.6v1.6
			C3.5,8.7,3.1,9.1,2.4,9.1L2.4,9.1z"/>
		<path id="XMLID_590_" fill="#FDCB14" d="M4.4,18.5c-0.8,0.1-1.6-0.4-1.7-1.1c0-0.1,0-0.2,0-0.3v-8L3,9c0.4-0.2,0.6-0.5,0.6-0.8
			V6.7l0.6,0.2C4.3,7,4.5,7,4.7,7c0.4,0,0.8-0.1,1.1-0.3l0.4-0.3l0.3,0.4c0.4,0.5,1,0.8,1.7,0.8c1.1,0,2-0.8,2-1.7c0,0,0-0.1,0-0.2
			l0-0.5h2.9c0.3,0,0.5,0.2,0.5,0.4l0,0v11.5c0.1,0.7-0.5,1.4-1.3,1.4c-0.1,0-0.2,0-0.4,0H4.4z"/>
		<path id="XMLID_589_" fill="#FDCB14" d="M13.6,16.5v-2.1h1.6c1,0,1.1-0.9,1.1-1.3v-2.5c0-0.4-0.1-1.3-1.1-1.3h-1.6V7.2h2.9
			c1.3,0,2,0.8,2,2.3v4.7c0,1.4-0.7,2.3-2,2.3L13.6,16.5z"/>
		<g id="XMLID_594_">
			<path id="XMLID_599_" fill="#263238" d="M16.5,6.9h-2.5V5.6c0-0.2,0-0.3-0.1-0.4c0.3-0.3,0.4-0.6,0.4-1c0-1-1-1.8-2.2-1.8
				c-0.3,0-0.6,0-0.8,0.2c-0.7-0.8-2-1.1-3.1-0.6C7.6,0.9,6.1,0.6,5,1.3c-0.6,0.3-1,0.9-1.1,1.5C2.8,2.4,1.5,2.9,1.1,3.8
				C1,4,1,4.2,1,4.4v3.7c0,0.6,0.6,1.2,1.3,1.3v7.6C2.2,18,3,18.8,4.1,18.9c0.1,0,0.2,0,0.4,0H12c1.1,0.1,2-0.6,2.1-1.5
				c0-0.1,0-0.2,0-0.3v-0.2h2.4c1.5,0,2.5-1,2.5-2.7V9.5C19,7.9,18.1,6.9,16.5,6.9z M13.2,17.1c0.1,0.5-0.3,1-0.9,1.1
				c-0.1,0-0.2,0-0.3,0H4.4c-0.6,0.1-1.1-0.3-1.2-0.8c0-0.1,0-0.2,0-0.3V9.3C3.7,9.1,4,8.7,4,8.2V7.3c0.7,0.2,1.5,0.1,2.1-0.3
				c0.7,1,2.2,1.3,3.4,0.7c0.7-0.4,1.1-1.1,1.2-1.8c0,0,0-0.1,0-0.2s0-0.1,0-0.1h2.5c0,0,0,0,0,0l0,0L13.2,17.1 M13.2,4.8h-2.9
				C10,4.8,9.8,5,9.8,5.2c0,0,0,0,0,0.1v0c0,0.1,0,0.2,0,0.3c0,0.1,0,0.2,0,0.2c0,0.8-0.7,1.3-1.6,1.3c-0.7,0-1.4-0.5-1.5-1.1
				c0-0.2-0.2-0.3-0.4-0.3C6.1,5.8,5.9,5.9,5.8,6C5.5,6.6,4.8,6.8,4.2,6.5C4,6.5,3.9,6.4,3.9,6.3c-0.2-0.2-0.4-0.2-0.6,0
				C3.2,6.4,3.1,6.5,3.1,6.6v1.6c0,0.3-0.3,0.6-0.7,0.6S1.8,8.5,1.8,8.2V4.4c0-0.6,0.6-1.1,1.3-1c0.4,0,0.7,0.2,0.9,0.3
				c0.2,0.2,0.4,0.2,0.6,0c0.1-0.1,0.2-0.3,0.1-0.4c0-0.1-0.1-0.3-0.1-0.4c0-0.8,0.7-1.4,1.5-1.4c0.7,0,1.3,0.4,1.5,1
				C7.8,2.7,8,2.9,8.2,2.8c0,0,0.1,0,0.1-0.1C9,2.2,10,2.3,10.6,2.9c0.1,0.1,0.1,0.2,0.2,0.3c0.1,0.2,0.4,0.3,0.6,0.2l0,0
				c0.2-0.1,0.5-0.2,0.7-0.2c0.7,0,1.2,0.5,1.2,1C13.5,4.4,13.3,4.6,13.2,4.8z M14.1,9.8h1.1c0.4,0,0.7,0.3,0.7,0.9v2.5
				c0,0.6-0.2,0.9-0.7,0.9h-1.1V9.8z M18.1,14.2c0,0.7-0.2,1.9-1.6,1.9h-2.5v-1.4h1.1c1,0,1.5-0.6,1.5-1.6v-2.5c0-1-0.6-1.6-1.5-1.6
				h-1.1V7.6h2.5c1.4,0,1.6,1.2,1.6,1.9V14.2z"/>
			<path id="XMLID_583_" fill="#263238" d="M5,8.7c-0.3,0-0.4,0.2-0.4,0.4v6.3c0,0.2,0.2,0.4,0.4,0.4s0.4-0.2,0.4-0.4V9.1
				C5.5,8.9,5.3,8.7,5,8.7z"/>
			<path id="XMLID_505_" fill="#263238" d="M7.1,8.7c-0.3,0-0.4,0.2-0.4,0.4v6.3c0,0.2,0.2,0.4,0.4,0.4s0.4-0.2,0.4-0.4V9.1
				C7.5,8.9,7.4,8.7,7.1,8.7z"/>
			<path id="XMLID_386_" fill="#263238" d="M9.2,8.7c-0.3,0-0.4,0.2-0.4,0.4v6.3c0,0.2,0.2,0.4,0.4,0.4c0.3,0,0.4-0.2,0.4-0.4V9.1
				C9.6,8.9,9.4,8.7,9.2,8.7z"/>
			<path id="XMLID_385_" fill="#263238" d="M11.3,8.7c-0.3,0-0.4,0.2-0.4,0.4v6.3c0,0.2,0.2,0.4,0.4,0.4c0.3,0,0.4-0.2,0.4-0.4V9.1
				C11.7,8.9,11.5,8.7,11.3,8.7z"/>
		</g>
	</g>
</g>
</svg>
